<?xml version="1.0" encoding="UTF-8"?><svg xmlns="http://www.w3.org/2000/svg" viewBox="0 0 40.31 25.95"><defs><style>.d{fill:#1d1d1b;}</style></defs><g id="a"/><g id="b"><g id="c"><g><path class="d" d="M5.9,2.1s-.04,.01-.08,.04-.08,.05-.13,.08-.09,.05-.13,.08c-.04,.02-.06,.04-.07,.04-.11,.06-.22,.12-.33,.18-.11,.06-.21,.12-.31,.18-.46,.3-.9,.61-1.3,.95s-.77,.7-1.11,1.09c-.22,.26-.43,.53-.62,.82s-.36,.6-.5,.91c-.14,.32-.25,.64-.32,.97-.08,.33-.11,.66-.1,.98,0,.24,.04,.47,.08,.68,.05,.21,.13,.37,.24,.49,.18,.17,.39,.25,.63,.23,.24-.01,.51-.08,.79-.22,.28-.13,.58-.31,.89-.55s.62-.49,.92-.76c.3-.28,.59-.56,.86-.86,.28-.3,.53-.59,.75-.86,.06-.05,.11-.12,.16-.2,.05-.09,.11-.16,.17-.22,.06-.04,.12-.03,.16,.04,.04,.06,.07,.13,.07,.19-.02,.34-.09,.66-.22,.94-.13,.28-.29,.55-.47,.79-.22,.29-.49,.57-.79,.86-.3,.28-.63,.54-.97,.77-.34,.23-.7,.42-1.07,.56-.37,.14-.72,.22-1.07,.22-.3,0-.57-.05-.79-.16-.22-.1-.41-.24-.56-.41-.16-.17-.28-.37-.38-.59-.1-.22-.18-.46-.23-.71-.02-.07-.03-.15-.04-.25-.01-.09-.02-.18-.02-.27,0-.42,.04-.8,.13-1.16s.19-.7,.31-1.04c.05-.15,.11-.3,.19-.44,.23-.49,.53-.96,.89-1.41,.36-.45,.77-.86,1.21-1.24s.91-.7,1.41-.98c.5-.28,1-.49,1.5-.64,.14-.05,.27-.05,.4,0,.04,.02,.08,.02,.12,.02s.08-.02,.13-.06c.12-.07,.25-.08,.38-.01,.13,.06,.21,.18,.22,.34,.02,.22,0,.44-.08,.66-.06,.19-.11,.37-.17,.54s-.12,.34-.19,.51c-.06,.17-.12,.36-.18,.56-.06,.2-.1,.43-.14,.68,0,.04-.02,.09-.04,.14-.02,.05-.04,.09-.07,.1-.04,.07-.09,.11-.16,.13-.07,.01-.13-.01-.19-.08-.02-.02-.03-.05-.05-.07s-.04-.05-.05-.08c-.08-.18-.13-.39-.15-.62-.02-.23-.02-.47,.01-.7,.03-.24,.08-.46,.17-.66s.19-.37,.32-.51Z"/><path class="d" d="M9.88,7.64c.1,0,.2-.03,.31-.07,.11-.04,.22-.07,.31-.1,.11-.03,.23-.07,.35-.11s.24-.08,.35-.1c.08,0,.11,.02,.1,.07-.02,.04-.05,.1-.11,.16s-.13,.12-.2,.17c-.08,.06-.13,.1-.17,.12-.19,.09-.38,.16-.57,.2-.19,.05-.37,.12-.53,.2-.07,.13-.17,.3-.3,.51s-.27,.42-.43,.62c-.16,.2-.32,.37-.49,.52-.17,.14-.34,.22-.5,.22-.22,0-.42-.06-.58-.19-.12-.08-.21-.2-.27-.37s-.1-.35-.11-.55c-.01-.2,0-.39,.02-.58,.02-.19,.05-.34,.08-.46,0-.06,.02-.09,.04-.11,.02-.02,.03-.03,.05-.04,.02,0,.03-.02,.05-.02,.02,0,.04-.02,.05-.05,.02-.09,.05-.18,.07-.28,.02-.1,.06-.18,.11-.26,.14-.24,.31-.46,.52-.67,.21-.2,.46-.32,.74-.35,.18-.03,.34-.02,.49,.02s.28,.14,.39,.28c.1,.1,.16,.22,.2,.34s.06,.24,.07,.36c0,.12,0,.22-.01,.32-.02,.1-.03,.17-.04,.22Zm-1.75,1.97c.08-.02,.17-.07,.27-.17,.1-.1,.2-.21,.29-.34,.09-.13,.17-.26,.24-.39,.07-.13,.11-.24,.14-.33-.16,.02-.33,.02-.52,.02s-.36-.02-.52-.05c-.02,.07-.04,.17-.05,.28,0,.12,0,.24,0,.36,0,.12,.02,.24,.05,.35,.02,.11,.06,.2,.1,.26Zm1.07-1.85s.03,0,.05-.02,.02-.03,.02-.05c.06-.15,.09-.32,.09-.5,0-.18-.06-.33-.17-.44-.06-.06-.13-.1-.22-.11-.09,0-.17,0-.25,.05-.16,.1-.29,.21-.38,.34-.1,.13-.19,.26-.28,.4,0,.04,0,.07,.02,.08,.08,.07,.12,.15,.11,.24,0,.04,.05,.06,.14,.07,.09,0,.2,0,.31,0,.12,0,.23-.01,.34-.03,.11-.02,.18-.02,.22-.02Z"/><path class="d" d="M14.34,11.3c.04,.08,.08,.1,.11,.07s.08-.07,.14-.11c.22-.19,.45-.44,.71-.74,.26-.3,.52-.62,.77-.95,.25-.33,.49-.65,.71-.97,.22-.32,.4-.58,.53-.79,.02-.03,.04-.07,.07-.1,.03-.04,.06-.07,.08-.1,.06-.06,.11-.07,.15-.02,.04,.05,.04,.11,.02,.18-.12,.2-.27,.49-.46,.86-.19,.38-.4,.77-.64,1.19-.24,.42-.49,.82-.76,1.21-.27,.39-.53,.71-.8,.95-.19,.18-.4,.28-.62,.3-.21,0-.4-.07-.59-.2s-.29-.29-.32-.5c-.05-.49-.04-.98,.02-1.48,.07-.6,.21-1.27,.42-2.02,.21-.74,.45-1.5,.73-2.26-.21,.46-.44,.96-.69,1.51-.25,.55-.5,1.08-.73,1.58-.24,.5-.46,.94-.66,1.32s-.36,.62-.47,.72c-.19,.18-.4,.28-.62,.3-.21,0-.4-.07-.59-.2-.18-.12-.29-.29-.32-.5-.05-.49-.04-.98,.02-1.48,.07-.58,.2-1.21,.39-1.9,.19-.69,.41-1.39,.67-2.09,.26-.7,.54-1.38,.85-2.04,.3-.66,.6-1.23,.9-1.73,.14-.22,.27-.42,.41-.62,.14-.2,.28-.38,.43-.55,.06-.07,.13-.12,.21-.16,.08-.03,.17-.03,.26,.01,.18,.08,.25,.23,.23,.44-.06,.47-.17,.97-.34,1.5-.17,.53-.37,1.05-.61,1.56-.24,.51-.49,1-.77,1.46s-.55,.86-.83,1.21c-.02,.02-.04,.05-.05,.08-.01,.03-.03,.06-.04,.1-.12,.32-.24,.67-.35,1.06-.12,.38-.22,.76-.3,1.12-.08,.36-.14,.7-.18,1.01-.04,.31-.04,.55,0,.72,.04,.08,.09,.12,.16,.13,.07,0,.13-.01,.2-.05,.14-.12,.31-.34,.51-.67,.2-.32,.42-.7,.65-1.14s.47-.9,.73-1.4c.25-.5,.5-.98,.73-1.44,.24-.46,.45-.88,.65-1.26,.2-.38,.37-.66,.5-.86,.14-.28,.27-.55,.4-.8,.13-.25,.26-.49,.39-.7,.14-.22,.27-.42,.41-.62,.14-.2,.28-.38,.43-.55,.06-.07,.13-.12,.21-.16,.08-.03,.17-.03,.26,.01,.18,.08,.25,.23,.23,.44-.06,.47-.15,.93-.29,1.38-.14,.45-.31,.88-.51,1.3-.2,.42-.42,.82-.67,1.2-.25,.38-.51,.75-.79,1.09-.02,.02-.04,.05-.05,.08-.01,.03-.03,.06-.04,.1-.08,.22-.17,.47-.26,.76-.1,.29-.19,.6-.29,.93-.1,.33-.19,.66-.27,.99s-.16,.65-.22,.94-.11,.56-.14,.79c-.03,.23-.03,.4,0,.51Zm.31-10.26c-.17,.29-.34,.62-.53,1-.18,.38-.36,.76-.53,1.16s-.34,.79-.5,1.17c-.16,.38-.31,.73-.45,1.03,.07-.07,.17-.21,.29-.42s.25-.45,.39-.73c.14-.28,.28-.58,.43-.9,.15-.32,.28-.63,.41-.92s.23-.57,.32-.81c.09-.24,.15-.43,.17-.57Zm2.99,.76c-.34,.58-.65,1.17-.92,1.78-.27,.61-.54,1.22-.82,1.82,.07-.07,.16-.19,.27-.37,.11-.17,.22-.37,.34-.59,.12-.22,.24-.46,.36-.71,.12-.26,.23-.5,.34-.74,.1-.24,.2-.47,.28-.68,.08-.21,.13-.38,.16-.51Z"/><path class="d" d="M16.99,8.94c-.02-.3,.02-.62,.1-.95,.08-.33,.2-.63,.36-.91,.16-.28,.36-.5,.61-.68,.24-.18,.53-.27,.86-.28,.17,.04,.3,.12,.39,.25s.12,.28,.08,.47c-.03,.18-.08,.33-.14,.45-.06,.12-.16,.25-.31,.39-.07,.06-.17,.15-.3,.25s-.25,.21-.37,.32c-.12,.11-.22,.23-.31,.34-.09,.12-.13,.21-.13,.29-.02,.21,0,.34,.1,.4,.09,.06,.2,.08,.34,.07,.14-.01,.28-.05,.43-.11,.14-.06,.26-.12,.35-.17,.1-.07,.22-.16,.35-.27s.26-.22,.38-.34c.13-.12,.25-.24,.37-.35,.12-.11,.22-.2,.3-.28,.06-.06,.12-.12,.17-.18,.05-.06,.11-.1,.19-.14,.06-.02,.11-.02,.15-.01,.04,0,.03,.07-.02,.18-.06,.14-.14,.26-.23,.38s-.19,.24-.29,.36c-.14,.16-.3,.33-.46,.5-.16,.18-.34,.34-.52,.49s-.37,.28-.56,.38c-.2,.11-.4,.18-.61,.21-.37,.02-.67-.05-.91-.23-.24-.18-.35-.46-.35-.86Zm1.92-2.26c-.22,.08-.39,.18-.51,.31-.12,.13-.21,.32-.27,.56,.18-.13,.33-.26,.47-.39,.14-.13,.24-.29,.31-.49Z"/><path class="d" d="M24.07,7.63c.09-.04,.14-.04,.16,0s.01,.1-.02,.16c-.05,.1-.11,.18-.18,.26-.07,.08-.15,.16-.24,.23-.18,.17-.34,.31-.46,.41-.12,.11-.23,.19-.31,.26s-.15,.12-.21,.16c-.06,.04-.11,.08-.16,.11-.18,.11-.37,.22-.55,.32s-.35,.18-.51,.23c-.25,.07-.49,.07-.73,0-.24-.07-.41-.21-.53-.43-.14-.25-.19-.53-.17-.86,.02-.32,.11-.64,.25-.94,.14-.3,.33-.56,.56-.77s.49-.33,.77-.34c.09-.02,.18,0,.27,.08,.09,.07,.15,.15,.17,.23,.02,.07,.03,.15,.01,.24s-.04,.19-.07,.29c-.03,.11-.06,.23-.09,.35-.03,.13-.06,.26-.08,.4-.02,.05-.04,.07-.07,.08-.03,0-.05-.01-.08-.05-.09-.14-.14-.27-.16-.39s-.04-.24-.07-.35c-.05,0-.11,.05-.19,.14-.08,.09-.15,.21-.22,.34-.07,.14-.13,.28-.18,.44-.05,.16-.07,.29-.07,.41,0,.16,.02,.28,.07,.36,.05,.08,.11,.13,.18,.14,.07,.02,.16,.01,.25-.01,.1-.02,.19-.06,.29-.11,.42-.2,.83-.41,1.22-.64,.39-.23,.77-.49,1.13-.77Z"/><path class="d" d="M24.25,10.92c.05,.15,.15,.2,.29,.14,.15-.06,.32-.18,.52-.36,.2-.18,.4-.41,.62-.67,.22-.26,.42-.52,.62-.78s.37-.49,.51-.7c.14-.21,.24-.34,.29-.41,.04-.06,.09-.12,.14-.18,.05-.06,.12-.12,.2-.18,.03-.02,.07-.05,.11-.08,.04-.03,.08-.04,.11-.04,.03,0,.05,.03,.04,.08,0,.05-.03,.13-.09,.24-.05,.1-.12,.24-.23,.44-.1,.2-.23,.42-.38,.66-.15,.24-.32,.5-.5,.76-.18,.26-.38,.5-.59,.73s-.43,.42-.65,.59-.44,.28-.67,.32c-.2,.05-.38,.07-.55,.08-.17,0-.32-.06-.44-.19-.12-.12-.19-.29-.2-.52-.02-.22,0-.46,.03-.71s.09-.5,.15-.73c.06-.24,.12-.42,.16-.55,.13-.42,.25-.83,.37-1.23,.12-.4,.23-.81,.34-1.22,.12-.36,.23-.73,.33-1.11,.1-.38,.2-.72,.31-1.03-.16,0-.32-.01-.49-.02h-.5c-.17-.02-.33-.03-.5-.04-.16-.02-.32-.04-.46-.08-.13-.03-.22-.08-.28-.16-.06-.07-.09-.14-.08-.22,0-.07,.04-.13,.12-.19,.08-.05,.19-.08,.33-.08,.09,0,.23,0,.43,.02,.2,.02,.41,.03,.63,.04s.42,0,.61,0c.19,0,.31-.02,.37-.04,.02,0,.04-.02,.04-.04,.05-.14,.1-.3,.16-.46,.06-.16,.11-.32,.17-.47,.06-.15,.11-.3,.16-.43,.05-.14,.1-.25,.14-.35,.03-.07,.1-.1,.2-.09,.1,.01,.2,.05,.31,.1,.11,.06,.2,.13,.28,.21,.08,.08,.12,.16,.11,.23-.02,.21-.08,.41-.17,.61-.09,.2-.16,.43-.23,.68,.5,0,.94-.01,1.3-.02,.36,0,.72,0,1.06,0,.11,0,.22,0,.34,0,.11,0,.2,.01,.26,.03s.07,.04,.04,.07c-.03,.03-.14,.07-.31,.11-.5,.16-.99,.28-1.46,.37-.47,.08-.94,.15-1.39,.19-.04,0-.06,.02-.05,.02,0,0,0,.03-.03,.07,0,0,0,.02-.01,.02,0,0-.01,.02-.01,.02-.13,.35-.27,.75-.42,1.19-.15,.44-.3,.89-.46,1.36-.15,.46-.3,.92-.43,1.37-.14,.45-.25,.85-.35,1.22-.1,.36-.17,.67-.21,.91s-.05,.39,0,.45Z"/><path class="d" d="M29.92,7.47l.14-.14h.01v.02c.02,.18,0,.32-.05,.41-.05,.09-.07,.14-.07,.15-.08,.12-.19,.27-.32,.46-.14,.19-.28,.38-.43,.58-.15,.2-.29,.38-.43,.54-.14,.16-.24,.28-.32,.35-.1,.11-.2,.22-.31,.31-.04,.03-.09,.06-.16,.08-.07,.02-.14,.04-.21,.05-.07,.01-.14,.01-.21,0-.07,0-.12-.03-.16-.06-.14-.09-.24-.19-.32-.32s-.11-.26-.11-.4c-.02-.44,.01-.89,.11-1.35s.22-.88,.35-1.25c.04-.11,.1-.23,.17-.35,.07-.07,.16-.09,.25-.06,.1,.03,.18,.1,.26,.2,.08,.1,.13,.22,.17,.37,.04,.14,.03,.29-.02,.43-.04,.14-.08,.27-.11,.39-.03,.12-.07,.25-.11,.39-.02,.06-.04,.16-.08,.28-.04,.12-.07,.25-.11,.38s-.08,.26-.11,.38c-.03,.12-.05,.21-.06,.28-.02,.12,.02,.15,.1,.1,.08-.06,.19-.15,.32-.29,.33-.34,.64-.66,.94-.98,.3-.32,.59-.63,.88-.95Zm-1.68-1.44c-.06,.06-.1,.06-.12,0-.1-.16-.17-.33-.2-.5-.03-.18-.02-.35,.05-.53,.03-.1,.1-.19,.21-.26,.11-.07,.21-.09,.29-.07,.05,.02,.1,.04,.16,.08,.06,.04,.09,.08,.11,.13,.06,.22,.03,.42-.09,.62-.12,.2-.25,.38-.4,.53Z"/><path class="d" d="M32.3,7.64c.1,0,.2-.03,.31-.07,.11-.04,.22-.07,.31-.1,.11-.03,.23-.07,.35-.11s.24-.08,.35-.1c.08,0,.11,.02,.1,.07-.02,.04-.05,.1-.11,.16s-.13,.12-.2,.17c-.08,.06-.13,.1-.17,.12-.19,.09-.38,.16-.57,.2-.19,.05-.37,.12-.53,.2-.07,.13-.17,.3-.3,.51s-.27,.42-.43,.62c-.16,.2-.32,.37-.49,.52-.17,.14-.34,.22-.5,.22-.22,0-.42-.06-.58-.19-.12-.08-.21-.2-.27-.37s-.1-.35-.11-.55c-.01-.2,0-.39,.02-.58,.02-.19,.05-.34,.08-.46,0-.06,.02-.09,.04-.11,.02-.02,.03-.03,.05-.04,.02,0,.03-.02,.05-.02,.02,0,.04-.02,.05-.05,.02-.09,.05-.18,.07-.28,.02-.1,.06-.18,.11-.26,.14-.24,.31-.46,.52-.67,.21-.2,.46-.32,.74-.35,.18-.03,.34-.02,.49,.02s.28,.14,.39,.28c.1,.1,.16,.22,.2,.34s.06,.24,.07,.36c0,.12,0,.22-.01,.32-.02,.1-.03,.17-.04,.22Zm-1.75,1.97c.08-.02,.17-.07,.27-.17,.1-.1,.2-.21,.29-.34,.09-.13,.17-.26,.24-.39,.07-.13,.11-.24,.14-.33-.16,.02-.33,.02-.52,.02s-.36-.02-.52-.05c-.02,.07-.04,.17-.05,.28,0,.12,0,.24,0,.36,0,.12,.02,.24,.05,.35,.02,.11,.06,.2,.1,.26Zm1.07-1.85s.03,0,.05-.02,.02-.03,.02-.05c.06-.15,.09-.32,.09-.5,0-.18-.06-.33-.17-.44-.06-.06-.13-.1-.22-.11-.09,0-.17,0-.25,.05-.16,.1-.29,.21-.38,.34-.1,.13-.19,.26-.28,.4,0,.04,0,.07,.02,.08,.08,.07,.12,.15,.11,.24,0,.04,.05,.06,.14,.07,.09,0,.2,0,.31,0,.12,0,.23-.01,.34-.03,.11-.02,.18-.02,.22-.02Z"/><path class="d" d="M33.43,9.62c-.03,.06-.06,.1-.07,.12-.13,.09-.22,.06-.26-.07-.02-.06-.03-.12-.04-.18,0-.06-.01-.12-.01-.18,0-.18,0-.35,0-.53,.02-.2,.07-.42,.14-.65,.07-.24,.16-.47,.26-.7,.1-.23,.2-.45,.31-.65s.21-.37,.31-.5c.05-.07,.11-.11,.2-.12,.08,0,.17,.01,.25,.06,.08,.05,.14,.12,.19,.2s.06,.19,.04,.3c0,0-.02,.03-.05,.07-.02,.04-.05,.08-.07,.13s-.05,.09-.07,.14c-.02,.04-.04,.07-.05,.08,.09-.06,.18-.14,.26-.22,.09-.08,.18-.16,.27-.23,.09-.07,.19-.13,.28-.19,.1-.05,.2-.08,.31-.08,.14,0,.26,.04,.36,.11,.1,.08,.19,.17,.26,.28s.11,.22,.13,.35,0,.24-.02,.35c-.07,.22-.17,.43-.3,.63-.13,.2-.26,.41-.39,.61-.13,.2-.25,.4-.37,.61-.11,.2-.19,.41-.24,.63-.05,.17-.05,.27,0,.31,.04,.04,.1,.05,.17,.02,.07-.02,.15-.06,.22-.12,.08-.06,.13-.1,.16-.12,.33-.26,.64-.54,.92-.85,.29-.31,.57-.6,.85-.88,.24-.24,.39-.37,.45-.39,.06-.02,.07,.02,.02,.12s-.12,.23-.22,.4-.19,.32-.27,.44c-.1,.16-.23,.35-.4,.58s-.35,.45-.56,.66-.41,.39-.63,.54-.42,.22-.6,.22c-.14,0-.26-.03-.36-.09-.1-.06-.19-.13-.26-.22-.07-.09-.13-.19-.16-.3-.04-.11-.05-.22-.05-.34,0-.4,.08-.79,.25-1.18,.16-.38,.34-.74,.52-1.06,.09-.17,.11-.28,.07-.35s-.16-.05-.35,.04c-.16,.07-.31,.2-.44,.39s-.26,.39-.38,.61c-.12,.22-.22,.44-.32,.65-.1,.22-.18,.39-.26,.52Z"/><path class="d" d="M14.39,19.37c0-.44,.11-.84,.3-1.19s.45-.66,.76-.93c.32-.27,.68-.5,1.08-.68,.4-.19,.82-.34,1.25-.46,.43-.12,.86-.2,1.28-.26,.42-.06,.81-.08,1.16-.08s.75,.03,1.15,.08c.4,.06,.78,.14,1.15,.26,.37,.12,.71,.27,1.03,.46s.57,.42,.77,.68c.2,.27,.33,.58,.39,.94,.06,.36,.02,.76-.11,1.22-.14,.43-.37,.82-.7,1.18s-.71,.66-1.14,.92c-.43,.26-.89,.47-1.39,.64-.49,.17-.97,.28-1.44,.34-.47,.06-.9,.06-1.3,0-.4-.05-.72-.17-.96-.34-.1,.21-.2,.42-.3,.64-.1,.22-.21,.45-.31,.7s-.2,.53-.3,.82c-.1,.3-.19,.62-.28,.98-.02,.05-.03,.1-.05,.15-.02,.05-.04,.09-.06,.13-.02,.03-.05,.05-.08,.04-.03,0-.06-.04-.1-.11-.11-.21-.18-.48-.19-.8-.02-.33,0-.67,.05-1.03,.05-.36,.13-.71,.23-1.06,.1-.34,.22-.64,.35-.9,.03-.05,.06-.1,.07-.14s0-.09-.05-.13c-.3,.02-.58-.02-.84-.12-.26-.1-.5-.25-.71-.44-.21-.19-.38-.42-.51-.68-.13-.26-.21-.53-.23-.81Zm8.23,.66c.43-.38,.73-.73,.9-1.05,.17-.32,.23-.62,.2-.88-.04-.26-.16-.5-.37-.7-.21-.2-.47-.37-.77-.51-.31-.14-.66-.23-1.04-.29-.39-.06-.78-.08-1.17-.07-.5,.02-1.01,.09-1.53,.21-.52,.12-.99,.28-1.42,.48-.43,.2-.79,.46-1.09,.76-.3,.3-.49,.65-.56,1.04-.06,.34-.01,.68,.16,1.02,.17,.34,.49,.65,.97,.91,.2-.46,.36-.83,.49-1.11,.13-.28,.23-.49,.3-.65,.07-.16,.13-.27,.16-.34,.04-.07,.07-.14,.1-.19,.07-.1,.17-.14,.31-.11,.13,.03,.26,.1,.37,.21,.12,.11,.21,.24,.27,.4,.06,.16,.06,.31,0,.45-.09,.19-.17,.37-.25,.52-.08,.16-.16,.31-.23,.46-.07,.15-.15,.3-.23,.46-.08,.16-.16,.33-.25,.52,.32,0,.69-.04,1.11-.11,.42-.06,.85-.16,1.28-.28s.85-.28,1.25-.47c.4-.19,.75-.41,1.04-.67Z"/><path class="d" d="M24.31,23.34c-.02-.3,.02-.62,.1-.95,.08-.33,.2-.63,.36-.91,.16-.28,.36-.5,.61-.68,.24-.18,.53-.27,.86-.28,.17,.04,.3,.12,.39,.25s.12,.28,.08,.47c-.03,.18-.08,.33-.14,.45-.06,.12-.16,.25-.31,.39-.07,.06-.17,.15-.3,.25s-.25,.21-.37,.32c-.12,.11-.22,.23-.31,.34-.09,.12-.13,.21-.13,.29-.02,.21,0,.34,.1,.4,.09,.06,.2,.08,.34,.07,.14-.01,.28-.05,.43-.11,.14-.06,.26-.12,.35-.17,.1-.07,.22-.16,.35-.27s.26-.22,.38-.34c.13-.12,.25-.24,.37-.35,.12-.11,.22-.2,.3-.28,.06-.06,.12-.12,.17-.18,.05-.06,.11-.1,.19-.14,.06-.02,.11-.02,.15-.01,.04,0,.03,.07-.02,.18-.06,.14-.14,.26-.23,.38s-.19,.24-.29,.36c-.14,.16-.3,.33-.46,.5-.16,.18-.34,.34-.52,.49s-.37,.28-.56,.38c-.2,.11-.4,.18-.61,.21-.37,.02-.67-.05-.91-.23-.24-.18-.35-.46-.35-.86Zm2.8-6.06c-.09-.06-.17-.17-.25-.33-.08-.16-.18-.31-.31-.46-.16,.16-.31,.32-.44,.49-.13,.17-.28,.32-.44,.46-.07,.06-.14,.09-.22,.07-.07-.02-.13-.05-.18-.11-.05-.06-.08-.12-.09-.2-.01-.08,0-.15,.07-.22,.12-.14,.24-.27,.35-.41,.11-.14,.23-.28,.35-.41,.13-.16,.28-.24,.47-.25,.18,0,.34,.09,.48,.3,.11,.16,.21,.33,.28,.52s.13,.36,.16,.54c.02,.06,.03,.11,.02,.13s-.03,.03-.05,.02c-.03,0-.06-.02-.1-.05s-.07-.05-.11-.07Zm-.88,3.8c-.22,.08-.39,.18-.51,.31-.12,.13-.21,.32-.27,.56,.18-.13,.33-.26,.47-.39,.14-.13,.24-.29,.31-.49Z"/><path class="d" d="M31.39,22.03c.09-.04,.14-.04,.16,0s.01,.1-.02,.16c-.05,.1-.11,.18-.18,.26-.07,.08-.15,.16-.24,.23-.18,.17-.34,.31-.46,.41-.12,.11-.23,.19-.31,.26s-.15,.12-.21,.16c-.06,.04-.11,.08-.16,.11-.18,.11-.37,.22-.55,.32s-.35,.18-.51,.23c-.25,.07-.49,.07-.73,0-.24-.07-.41-.21-.53-.43-.14-.25-.19-.53-.17-.86,.02-.32,.11-.64,.25-.94,.14-.3,.33-.56,.56-.77s.49-.33,.77-.34c.09-.02,.18,0,.27,.08,.09,.07,.15,.15,.17,.23,.02,.07,.03,.15,.01,.24s-.04,.19-.07,.29c-.03,.11-.06,.23-.09,.35-.03,.13-.06,.26-.08,.4-.02,.05-.04,.07-.07,.08-.03,0-.05-.01-.08-.05-.09-.14-.14-.27-.16-.39s-.04-.24-.07-.35c-.05,0-.11,.05-.19,.14-.08,.09-.15,.21-.22,.34-.07,.14-.13,.28-.18,.44-.05,.16-.07,.29-.07,.41,0,.16,.02,.28,.07,.36,.05,.08,.11,.13,.18,.14,.07,.02,.16,.01,.25-.01,.1-.02,.19-.06,.29-.11,.42-.2,.83-.41,1.22-.64,.39-.23,.77-.49,1.13-.77Z"/><path class="d" d="M33.92,21.92c-.3,.23-.6,.46-.88,.68-.28,.22-.54,.47-.77,.75-.14,.17-.26,.34-.38,.52-.12,.18-.21,.36-.28,.55-.06,.08-.14,.1-.23,.05-.19-.14-.32-.33-.4-.55-.07-.22-.11-.46-.1-.71s.03-.5,.08-.74c.05-.24,.11-.46,.16-.64,.13-.46,.27-.94,.44-1.43,.16-.49,.34-.98,.53-1.46s.38-.94,.59-1.39c.2-.45,.4-.86,.59-1.25,.1-.2,.22-.38,.34-.53s.24-.28,.37-.37c.07-.06,.15-.09,.22-.09,.08,0,.15,0,.21,.04,.06,.03,.12,.08,.16,.14s.07,.12,.08,.19c.05,.34,.01,.74-.11,1.19-.12,.45-.28,.9-.49,1.35s-.44,.88-.69,1.27-.49,.71-.71,.94c-.03,.03-.05,.06-.05,.07-.13,.34-.24,.66-.34,.98-.1,.32-.2,.64-.31,.96-.02,.09-.03,.18-.05,.28-.02,.1-.03,.19-.03,.29,.09-.12,.19-.24,.31-.35,.25-.24,.51-.47,.78-.68,.27-.22,.56-.4,.88-.56,.13-.06,.25-.11,.38-.15s.25-.03,.38,0c.1,.02,.21,.06,.31,.12,.11,.08,.17,.16,.17,.25,0,.09,0,.19-.04,.3-.08,.3-.18,.62-.31,.97-.12,.35-.24,.69-.35,1-.11,.32-.21,.59-.29,.82s-.11,.37-.1,.41c.04,.08,.12,.08,.23,.01,.12-.07,.26-.19,.42-.35,.16-.16,.34-.35,.54-.58,.2-.22,.39-.45,.59-.68,.2-.23,.39-.44,.57-.65s.34-.37,.47-.49c.1-.1,.19-.15,.26-.13,.07,.02,.08,.1,.04,.25-.06,.11-.17,.27-.31,.49s-.31,.45-.51,.7c-.2,.26-.41,.52-.63,.78-.22,.26-.45,.5-.67,.72-.22,.22-.43,.39-.63,.53s-.37,.21-.52,.21-.28-.03-.4-.08-.23-.13-.32-.23c-.09-.1-.15-.22-.2-.35-.04-.13-.06-.28-.04-.44,0-.06,.02-.13,.04-.2,.02-.07,.04-.15,.06-.25,.09-.23,.17-.46,.25-.7,.08-.23,.16-.46,.25-.7,.13-.34,.3-.68,.5-1.04v-.02s-.02-.02-.06-.02Zm-1.22-1.93c.07-.06,.17-.18,.31-.36,.13-.18,.27-.4,.41-.66,.14-.26,.28-.53,.42-.82,.14-.29,.26-.57,.36-.85s.17-.52,.22-.73,.04-.38-.02-.48c-.09,.19-.21,.47-.37,.82-.16,.36-.32,.73-.49,1.12-.17,.39-.33,.77-.49,1.13-.16,.36-.27,.64-.35,.83Z"/><path class="d" d="M36.33,23.34c-.02-.3,.02-.62,.1-.95,.08-.33,.2-.63,.36-.91,.16-.28,.36-.5,.61-.68,.24-.18,.53-.27,.86-.28,.17,.04,.3,.12,.39,.25s.12,.28,.08,.47c-.03,.18-.08,.33-.14,.45-.06,.12-.16,.25-.31,.39-.07,.06-.17,.15-.3,.25s-.25,.21-.37,.32c-.12,.11-.22,.23-.31,.34-.09,.12-.13,.21-.13,.29-.02,.21,0,.34,.1,.4,.09,.06,.2,.08,.34,.07,.14-.01,.28-.05,.43-.11,.14-.06,.26-.12,.35-.17,.1-.07,.22-.16,.35-.27s.26-.22,.38-.34c.13-.12,.25-.24,.37-.35,.12-.11,.22-.2,.3-.28,.06-.06,.12-.12,.17-.18,.05-.06,.11-.1,.19-.14,.06-.02,.11-.02,.15-.01,.04,0,.03,.07-.02,.18-.06,.14-.14,.26-.23,.38s-.19,.24-.29,.36c-.14,.16-.3,.33-.46,.5-.16,.18-.34,.34-.52,.49s-.37,.28-.56,.38c-.2,.11-.4,.18-.61,.21-.37,.02-.67-.05-.91-.23-.24-.18-.35-.46-.35-.86Zm1.92-2.26c-.22,.08-.39,.18-.51,.31-.12,.13-.21,.32-.27,.56,.18-.13,.33-.26,.47-.39,.14-.13,.24-.29,.31-.49Z"/></g></g></g></svg>